<svg width="114" height="151" viewBox="0 0 114 151" fill="none" xmlns="http://www.w3.org/2000/svg">
<path d="M68.9295 150.344C40.1558 150.344 0 131.105 0 106.903C0 101.117 2.27527 95.7305 5.59264 91.177C11.1795 83.3198 17.3511 81.3815 25.6647 82.0758C40.3642 83.3198 60.4364 93.6476 73.8969 102.558C80.5548 106.961 82.2222 108.512 80.3116 106.076C64.0201 85.3102 36.9311 43.779 36.9311 22.944C36.9311 13.108 43.7684 7.35109 50.7911 3.97213C60.8532 -0.870661 73.0632 -3.54954 83.2122 9.67701C98.1143 29.349 113.844 68.4269 113.844 99.4567C113.844 130.7 97.9117 150.372 68.9295 150.372V150.344Z" fill="white"/>
</svg>
