<svg width="112" height="141" viewBox="0 0 112 141" fill="none" xmlns="http://www.w3.org/2000/svg">
<path d="M52.6172 140.661C16.9714 140.661 0.726105 111.835 0.726105 76.0555C0.934526 39.6623 19.6924 0 58.4761 0C92.8541 0 111.207 27.1937 111.207 63.9977C111.207 100.998 90.9783 140.661 52.6172 140.661V140.661ZM43.0704 89.0159C42.1325 91.1856 43.5104 92.7652 46.492 92.2502C48.6547 92.0345 50.8345 92.052 52.9935 92.3023C55.156 92.4895 57.2915 92.9124 59.362 93.5636C62.1409 94.6745 63.8662 93.4132 63.4725 91.1104C62.934 86.3197 63.1946 78.7344 64.0514 71.8318C64.9083 64.9292 66.4772 57.477 68.1561 52.9177C69.094 50.748 67.7162 49.1743 64.7346 49.6892C62.5718 49.9049 60.3921 49.8875 58.233 49.6372C56.0706 49.4466 53.9352 49.0217 51.8646 48.37C49.0799 47.2649 47.3545 48.5263 47.7482 50.829C48.2866 55.614 48.0319 63.1993 47.1693 70.1076C46.3066 77.016 44.7377 84.4624 43.0646 89.0217L43.0704 89.0159Z" fill="white"/>
</svg>
