<svg width="119" height="141" viewBox="0 0 119 141" fill="none" xmlns="http://www.w3.org/2000/svg">
<path d="M0 59.1549V31.0355C0 10.3452 6.8316 0 24.8369 0H29.5958C46.5764 0 52.9911 8.67883 52.9911 25.4579C52.9911 69.315 49.4711 79.4461 49.4711 83.1722C49.4711 84.4103 50.0906 84.8269 51.3353 84.8269C52.9911 84.8269 55.6832 83.9995 59.1974 83.9995C62.7116 83.9995 65.4095 84.8269 67.0653 84.8269C68.3043 84.8269 68.9296 84.4103 68.9296 83.1722C68.9296 79.4461 65.4096 69.286 65.4096 25.4579C65.4096 8.67883 71.8243 0 88.799 0H93.558C111.563 0 118.395 10.3452 118.395 31.0355V59.1549C118.395 101.143 96.8696 140.655 59.1974 140.655C21.5253 140.655 0 101.143 0 59.1549Z" fill="white"/>
</svg>
